<mxfile host="app.diagrams.net" modified="2023-06-10T09:36:58.138Z" agent="Mozilla/5.0 (Windows NT 10.0; Win64; x64) AppleWebKit/537.36 (KHTML, like Gecko) Chrome/114.0.0.0 Safari/537.36" etag="001ZlgL1-Qu5OeE6CqEA" version="21.3.8" type="device" pages="2">
  <diagram name="Dual-Core" id="me6e9SqIZ_2YeW48oClW">
    <mxGraphModel dx="2590" dy="2353" grid="1" gridSize="10" guides="1" tooltips="1" connect="1" arrows="1" fold="1" page="1" pageScale="1" pageWidth="850" pageHeight="1100" math="0" shadow="0">
      <root>
        <mxCell id="0" />
        <mxCell id="1" parent="0" />
        <mxCell id="KA6oy13aI1tK9_ZXkjHO-1" value="" style="group;fontSize=30;" vertex="1" connectable="0" parent="1">
          <mxGeometry x="60" y="-0.77" width="784.44" height="1086.16" as="geometry" />
        </mxCell>
        <mxCell id="JJ5KZ1c3nrb64je1URwm-1" value="Giao diện người dùng" style="rounded=0;whiteSpace=wrap;html=1;fontSize=30;" vertex="1" parent="KA6oy13aI1tK9_ZXkjHO-1">
          <mxGeometry x="470.66400000000016" width="289.63938461538464" height="144.82133333333337" as="geometry" />
        </mxCell>
        <mxCell id="JJ5KZ1c3nrb64je1URwm-9" style="edgeStyle=orthogonalEdgeStyle;rounded=0;orthogonalLoop=1;jettySize=auto;html=1;exitX=0.75;exitY=0;exitDx=0;exitDy=0;entryX=0.75;entryY=1;entryDx=0;entryDy=0;fontSize=30;" edge="1" parent="KA6oy13aI1tK9_ZXkjHO-1" source="JJ5KZ1c3nrb64je1URwm-2" target="JJ5KZ1c3nrb64je1URwm-1">
          <mxGeometry relative="1" as="geometry" />
        </mxCell>
        <mxCell id="JJ5KZ1c3nrb64je1URwm-2" value="Máy chủ" style="rounded=0;whiteSpace=wrap;html=1;fontSize=30;" vertex="1" parent="KA6oy13aI1tK9_ZXkjHO-1">
          <mxGeometry x="470.66400000000016" y="289.64266666666674" width="289.63938461538464" height="144.82133333333337" as="geometry" />
        </mxCell>
        <mxCell id="JJ5KZ1c3nrb64je1URwm-8" style="edgeStyle=orthogonalEdgeStyle;rounded=0;orthogonalLoop=1;jettySize=auto;html=1;exitX=0.25;exitY=1;exitDx=0;exitDy=0;entryX=0.25;entryY=0;entryDx=0;entryDy=0;fontSize=30;" edge="1" parent="KA6oy13aI1tK9_ZXkjHO-1" source="JJ5KZ1c3nrb64je1URwm-1" target="JJ5KZ1c3nrb64je1URwm-2">
          <mxGeometry relative="1" as="geometry" />
        </mxCell>
        <mxCell id="JJ5KZ1c3nrb64je1URwm-14" style="edgeStyle=orthogonalEdgeStyle;rounded=0;orthogonalLoop=1;jettySize=auto;html=1;exitX=1;exitY=0.75;exitDx=0;exitDy=0;entryX=0;entryY=0.75;entryDx=0;entryDy=0;fontSize=30;" edge="1" parent="KA6oy13aI1tK9_ZXkjHO-1" source="JJ5KZ1c3nrb64je1URwm-12" target="JJ5KZ1c3nrb64je1URwm-2">
          <mxGeometry relative="1" as="geometry" />
        </mxCell>
        <mxCell id="JJ5KZ1c3nrb64je1URwm-15" value="ESP32&lt;br style=&quot;font-size: 30px;&quot;&gt;Cổng giao tiếp" style="rounded=0;whiteSpace=wrap;html=1;verticalAlign=top;fontSize=30;" vertex="1" parent="KA6oy13aI1tK9_ZXkjHO-1">
          <mxGeometry x="84.47815384615384" y="555.1484444444445" width="699.9618461538463" height="265.50577777777784" as="geometry" />
        </mxCell>
        <mxCell id="JJ5KZ1c3nrb64je1URwm-12" value="Cơ sở dữ liệu" style="rounded=0;whiteSpace=wrap;html=1;fontSize=30;" vertex="1" parent="KA6oy13aI1tK9_ZXkjHO-1">
          <mxGeometry y="289.64266666666674" width="289.63938461538464" height="144.82133333333337" as="geometry" />
        </mxCell>
        <mxCell id="JJ5KZ1c3nrb64je1URwm-13" style="edgeStyle=orthogonalEdgeStyle;rounded=0;orthogonalLoop=1;jettySize=auto;html=1;exitX=0;exitY=0.25;exitDx=0;exitDy=0;entryX=1;entryY=0.25;entryDx=0;entryDy=0;fontSize=30;" edge="1" parent="KA6oy13aI1tK9_ZXkjHO-1" source="JJ5KZ1c3nrb64je1URwm-2" target="JJ5KZ1c3nrb64je1URwm-12">
          <mxGeometry relative="1" as="geometry" />
        </mxCell>
        <mxCell id="JJ5KZ1c3nrb64je1URwm-18" value="Core 0&lt;br style=&quot;font-size: 30px;&quot;&gt;Kết nối module LoRa" style="rounded=0;whiteSpace=wrap;html=1;fontSize=30;" vertex="1" parent="KA6oy13aI1tK9_ZXkjHO-1">
          <mxGeometry x="108.61476923076924" y="651.6960000000001" width="289.63938461538464" height="144.82133333333337" as="geometry" />
        </mxCell>
        <mxCell id="JJ5KZ1c3nrb64je1URwm-26" style="edgeStyle=orthogonalEdgeStyle;rounded=0;orthogonalLoop=1;jettySize=auto;html=1;exitX=0.75;exitY=0;exitDx=0;exitDy=0;entryX=0.75;entryY=1;entryDx=0;entryDy=0;fontSize=30;" edge="1" parent="KA6oy13aI1tK9_ZXkjHO-1" source="JJ5KZ1c3nrb64je1URwm-20" target="JJ5KZ1c3nrb64je1URwm-2">
          <mxGeometry relative="1" as="geometry" />
        </mxCell>
        <mxCell id="JJ5KZ1c3nrb64je1URwm-20" value="Core 1&lt;br style=&quot;font-size: 30px;&quot;&gt;Gửi, nhận, cập nhật dữ liệu máy chủ" style="rounded=0;whiteSpace=wrap;html=1;fontSize=30;" vertex="1" parent="KA6oy13aI1tK9_ZXkjHO-1">
          <mxGeometry x="470.66400000000016" y="651.6960000000001" width="289.63938461538464" height="144.82133333333337" as="geometry" />
        </mxCell>
        <mxCell id="JJ5KZ1c3nrb64je1URwm-25" style="edgeStyle=orthogonalEdgeStyle;rounded=0;orthogonalLoop=1;jettySize=auto;html=1;exitX=0.25;exitY=1;exitDx=0;exitDy=0;entryX=0.25;entryY=0;entryDx=0;entryDy=0;fontSize=30;" edge="1" parent="KA6oy13aI1tK9_ZXkjHO-1" source="JJ5KZ1c3nrb64je1URwm-2" target="JJ5KZ1c3nrb64je1URwm-20">
          <mxGeometry relative="1" as="geometry" />
        </mxCell>
        <mxCell id="JJ5KZ1c3nrb64je1URwm-29" style="edgeStyle=orthogonalEdgeStyle;rounded=0;orthogonalLoop=1;jettySize=auto;html=1;exitX=0.75;exitY=0;exitDx=0;exitDy=0;entryX=0.75;entryY=1;entryDx=0;entryDy=0;fontSize=30;" edge="1" parent="KA6oy13aI1tK9_ZXkjHO-1" source="JJ5KZ1c3nrb64je1URwm-27" target="JJ5KZ1c3nrb64je1URwm-18">
          <mxGeometry relative="1" as="geometry" />
        </mxCell>
        <mxCell id="JJ5KZ1c3nrb64je1URwm-27" value="Khối thiết bị" style="rounded=0;whiteSpace=wrap;html=1;fontSize=30;" vertex="1" parent="KA6oy13aI1tK9_ZXkjHO-1">
          <mxGeometry x="108.61476923076924" y="941.3386666666668" width="289.63938461538464" height="144.82133333333337" as="geometry" />
        </mxCell>
        <mxCell id="JJ5KZ1c3nrb64je1URwm-28" style="edgeStyle=orthogonalEdgeStyle;rounded=0;orthogonalLoop=1;jettySize=auto;html=1;exitX=0.25;exitY=1;exitDx=0;exitDy=0;entryX=0.25;entryY=0;entryDx=0;entryDy=0;fontSize=30;" edge="1" parent="KA6oy13aI1tK9_ZXkjHO-1" source="JJ5KZ1c3nrb64je1URwm-18" target="JJ5KZ1c3nrb64je1URwm-27">
          <mxGeometry relative="1" as="geometry" />
        </mxCell>
      </root>
    </mxGraphModel>
  </diagram>
  <diagram id="9Tkjtzt_8VgAu_f3ddai" name="ESP-Get-Data">
    <mxGraphModel dx="863" dy="418" grid="1" gridSize="10" guides="1" tooltips="1" connect="1" arrows="1" fold="1" page="1" pageScale="1" pageWidth="850" pageHeight="1100" math="0" shadow="0">
      <root>
        <mxCell id="0" />
        <mxCell id="1" parent="0" />
        <mxCell id="K5ErCxru_vDPTwtMMYIt-4" style="edgeStyle=orthogonalEdgeStyle;rounded=0;orthogonalLoop=1;jettySize=auto;html=1;entryX=0.5;entryY=0;entryDx=0;entryDy=0;" edge="1" parent="1" source="K5ErCxru_vDPTwtMMYIt-1" target="K5ErCxru_vDPTwtMMYIt-3">
          <mxGeometry relative="1" as="geometry" />
        </mxCell>
        <mxCell id="K5ErCxru_vDPTwtMMYIt-1" value="Khởi tạo API và object HTTPClient" style="rounded=0;whiteSpace=wrap;html=1;" vertex="1" parent="1">
          <mxGeometry x="50" y="20" width="120" height="60" as="geometry" />
        </mxCell>
        <mxCell id="K5ErCxru_vDPTwtMMYIt-6" style="edgeStyle=orthogonalEdgeStyle;rounded=0;orthogonalLoop=1;jettySize=auto;html=1;entryX=0.5;entryY=0;entryDx=0;entryDy=0;" edge="1" parent="1" source="K5ErCxru_vDPTwtMMYIt-3" target="K5ErCxru_vDPTwtMMYIt-5">
          <mxGeometry relative="1" as="geometry" />
        </mxCell>
        <mxCell id="K5ErCxru_vDPTwtMMYIt-3" value="Tạo HTTP socket" style="rounded=0;whiteSpace=wrap;html=1;" vertex="1" parent="1">
          <mxGeometry x="50" y="110" width="120" height="60" as="geometry" />
        </mxCell>
        <mxCell id="WhJdO1IWmosvtBt80qs5-1" style="edgeStyle=orthogonalEdgeStyle;rounded=0;orthogonalLoop=1;jettySize=auto;html=1;entryX=0;entryY=0.5;entryDx=0;entryDy=0;" edge="1" parent="1" source="K5ErCxru_vDPTwtMMYIt-5" target="K5ErCxru_vDPTwtMMYIt-10">
          <mxGeometry relative="1" as="geometry" />
        </mxCell>
        <mxCell id="K5ErCxru_vDPTwtMMYIt-5" value="Yêu cầu dữ liệu thông qua HTTP GET" style="rounded=0;whiteSpace=wrap;html=1;" vertex="1" parent="1">
          <mxGeometry x="50" y="200" width="120" height="60" as="geometry" />
        </mxCell>
        <mxCell id="WhJdO1IWmosvtBt80qs5-5" value="true" style="edgeStyle=orthogonalEdgeStyle;rounded=0;orthogonalLoop=1;jettySize=auto;html=1;" edge="1" parent="1" source="K5ErCxru_vDPTwtMMYIt-10" target="WhJdO1IWmosvtBt80qs5-4">
          <mxGeometry relative="1" as="geometry" />
        </mxCell>
        <mxCell id="WhJdO1IWmosvtBt80qs5-7" value="false" style="edgeStyle=orthogonalEdgeStyle;rounded=0;orthogonalLoop=1;jettySize=auto;html=1;entryX=0.5;entryY=1;entryDx=0;entryDy=0;" edge="1" parent="1" source="K5ErCxru_vDPTwtMMYIt-10" target="WhJdO1IWmosvtBt80qs5-6">
          <mxGeometry relative="1" as="geometry" />
        </mxCell>
        <mxCell id="K5ErCxru_vDPTwtMMYIt-10" value="httpResponseCode &amp;gt; 0" style="rhombus;whiteSpace=wrap;html=1;" vertex="1" parent="1">
          <mxGeometry x="210" y="195" width="160" height="70" as="geometry" />
        </mxCell>
        <mxCell id="WhJdO1IWmosvtBt80qs5-4" value="Xử lý và cập nhật dữ liệu" style="rounded=0;whiteSpace=wrap;html=1;" vertex="1" parent="1">
          <mxGeometry x="420" y="200" width="120" height="60" as="geometry" />
        </mxCell>
        <mxCell id="WhJdO1IWmosvtBt80qs5-6" value="Báo lỗi" style="rounded=0;whiteSpace=wrap;html=1;" vertex="1" parent="1">
          <mxGeometry x="230" y="90" width="120" height="60" as="geometry" />
        </mxCell>
      </root>
    </mxGraphModel>
  </diagram>
</mxfile>
